<svg xmlns="http://www.w3.org/2000/svg" viewBox="0 0 32 32">
  <circle cx="16" cy="16" r="16" fill="#29296E"/>
  <path d="M21.8 11.4c-.2-.4-.6-.6-1-.6h-2.4l-.6-1.8c-.2-.4-.6-.6-1-.6h-1.6c-.4 0-.8.2-1 .6l-.6 1.8H11c-.4 0-.8.2-1 .6-.2.4-.1.8.1 1.1l1.5 2.1-.6 1.8c-.1.4 0 .8.3 1.1.3.3.7.4 1.1.2l2.4-1 2.4 1c.4.2.8.1 1.1-.2.3-.3.4-.7.3-1.1l-.6-1.8 1.5-2.1c.3-.3.3-.7.2-1.1z" fill="#EC796B"/>
  <path d="M16 20.5c-.2 0-.3 0-.5-.1l-2.8-1.2c-.4-.2-.6-.5-.5-.9.1-.4.4-.6.8-.6h6c.4 0 .7.2.8.6.1.4-.1.8-.5.9l-2.8 1.2c-.2.1-.3.1-.5.1z" fill="#fff"/>
</svg>
