<svg width="306" height="306" viewBox="0 0 306 306" fill="none" xmlns="http://www.w3.org/2000/svg">
<path d="M302.7 122.1C300.7 112.3 297.7 102.6 293.8 93.4C290 84.3 285.2 75.6 279.7 67.4C274.2 59.3 268 51.7 261 44.8C254.1 37.9 246.5 31.6 238.4 26.1C230.2 20.6 221.5 15.8 212.4 12C203.2 8.1 193.5 5.1 183.7 3.1C173.6 1 163.3 0 152.9 0C142.5 0 132.2 1 122.1 3.1C112.3 5.1 102.6 8.1 93.4 12C84.3 15.8 75.6 20.6 67.4 26.1C59.3 31.6 51.7 37.8 44.8 44.8C37.9 51.7 31.6 59.3 26.1 67.4C20.6 75.6 15.8 84.3 12 93.4C8.1 102.6 5.1 112.3 3.1 122.1C1 132.2 0 142.5 0 152.9C0 163.3 1 173.6 3.1 183.7C5.1 193.5 8.1 203.2 12 212.4C15.8 221.5 20.6 230.2 26.1 238.4C31.6 246.5 37.8 254.1 44.8 261C51.7 267.9 59.3 274.2 67.4 279.7C75.6 285.2 84.3 290 93.4 293.8C102.6 297.7 112.3 300.7 122.1 302.7C132.2 304.8 142.5 305.8 152.9 305.8C163.3 305.8 173.6 304.8 183.7 302.7C193.5 300.7 203.2 297.7 212.4 293.8C221.5 290 230.2 285.2 238.4 279.7C246.5 274.2 254.1 268 261 261C267.9 254.1 274.2 246.5 279.7 238.4C285.2 230.2 290 221.5 293.8 212.4C297.7 203.2 300.7 193.5 302.7 183.7C304.8 173.6 305.8 163.3 305.8 152.9C305.8 142.5 304.8 132.2 302.7 122.1ZM17.5 152.9C17.5 134.6 21.1 116.9 28.1 100.2C31.5 92.2 35.7 84.4 40.6 77.2C45.4 70 51 63.3 57.1 57.1C63.2 51 70 45.4 77.2 40.6C84.4 35.7 92.2 31.5 100.2 28.1C116.9 21 134.6 17.5 152.9 17.5C171.2 17.5 188.9 21.1 205.6 28.1C213.6 31.5 221.4 35.7 228.6 40.6C235.8 45.4 242.5 51 248.7 57.1C254.8 63.2 260.4 70 265.2 77.2C270.1 84.4 274.3 92.2 277.7 100.2C282.8 112.1 286 124.6 287.5 137.5H236.9L237.3 107.4C237.3 93.8 233.1 81.1 225.5 71.5C221.7 66.6 217.1 62.7 212.1 60C206.7 57.1 200.9 55.6 194.9 55.6C188.9 55.6 183.1 57.1 177.7 60C172.6 62.7 168.1 66.6 164.3 71.5C156.7 81.2 152.5 93.9 152.5 107.3V137.5H145.5L145.9 107.4C145.9 93.8 141.7 81.1 134.1 71.5C130.3 66.6 125.7 62.7 120.7 60C115.3 57.1 109.5 55.6 103.5 55.6C97.5 55.6 91.7 57.1 86.3 60C81.2 62.7 76.7 66.6 72.9 71.5C65.3 81.2 61.1 93.9 61.1 107.3V236.8H46.5C44.4 234.2 42.3 231.5 40.4 228.6C35.5 221.4 31.3 213.6 27.9 205.6C20.8 188.9 17.3 171.2 17.3 152.9H17.5ZM219.8 137.5H169.8V107.3C169.8 102.4 170.5 97.7 172 93.3C173.4 89.1 175.3 85.4 177.8 82.3C182.5 76.3 188.6 73 195 73C201.4 73 207.4 76.3 212.2 82.3C214.7 85.5 216.6 89.2 218 93.3C219.5 97.7 220.2 102.4 220.2 107.2L219.8 137.5ZM128.5 137.5H78.5V107.3C78.5 102.4 79.2 97.7 80.7 93.3C82.1 89.1 84 85.4 86.5 82.3C91.2 76.3 97.3 73 103.7 73C110.1 73 116.1 76.3 120.9 82.3C123.4 85.5 125.3 89.2 126.7 93.3C128.2 97.7 128.9 102.4 128.9 107.2L128.5 137.5ZM78.5 236.7V154.9H152.6V236.2L78.5 236.8V236.7ZM277.8 205.6C274.4 213.6 270.2 221.4 265.3 228.6C263.8 230.9 262.2 233.1 260.5 235.2L169.8 235.9V154.7H288.4C288.2 172.3 284.6 189.4 277.8 205.5V205.6Z" fill="black"/>
</svg>
